PathFileType	4	(X/Y/Z)	Patient4_TMGait_0pt6_02_right_11.trc.trc
DataRate	CameraRate	NumFrames	NumMarkers	Units	OrigDataRate	OrigDataStartFrame	OrigNumFrames
82.840236686391	82.840236686391	5	33	mm	82.840236686391	53	       141
Frame#	Time	Sacral			L.Shoulder			Chest			R.Shoulder			Neck			R.ASIS			L.ASIS			R.Thigh.Superior			R.Thigh.Lateral			R.Thigh.Inferior			R.Patella			L.Thigh.Superior			L.Thigh.Lateral			L.Thigh.Inferior			L.Patella			L.Shank.Superior			L.Shank.Lateral			L.Shank.Inferior			R.Shank.Superior			R.Shank.Lateral			R.Shank.Inferior			R.Heel			R.Midfoot.Superior			R.Midfoot.Lateral			R.Toe			L.Heel			L.Midfoot.Lateral			L.Midfoot.Superior			L.Toe			L.Elbow			L.Wrist			R.Elbow			R.Wrist			
		X1	Y1	Z1	X2	Y2	Z2	X3	Y3	Z3	X4	Y4	Z4	X5	Y5	Z5	X6	Y6	Z6	X7	Y7	Z7	X8	Y8	Z8	X9	Y9	Z9	X10	Y10	Z10	X11	Y11	Z11	X12	Y12	Z12	X13	Y13	Z13	X14	Y14	Z14	X15	Y15	Z15	X16	Y16	Z16	X17	Y17	Z17	X18	Y18	Z18	X19	Y19	Z19	X20	Y20	Z20	X21	Y21	Z21	X22	Y22	Z22	X23	Y23	Z23	X24	Y24	Z24	X25	Y25	Z25	X26	Y26	Z26	X27	Y27	Z27	X28	Y28	Z28	X29	Y29	Z29	X30	Y30	Z30	X31	Y31	Z31	X32	Y32	Z32	X33	Y33	Z33	

53	13.557714285714	690.389318657638	1007.661630666141	488.993292755436	845.371955366292	1434.191730497460	289.960279284061	964.257792285894	1369.040007796516	441.291264606441	895.609515297287	1446.199610835786	619.972339559477	857.024808620493	1496.694391381832	439.571383711970	924.635177312613	945.835607931614	589.050504505496	892.591234972452	962.425331238251	316.291874962400	956.846535804951	739.167726820332	558.055929063300	871.650295016861	631.713155838318	616.605267136036	942.809559816669	578.807079628008	532.506821257552	938.421188546542	491.340075759341	534.686846861640	984.049660614938	795.736894447195	348.360289690368	952.007688436914	666.720394549252	268.160830096815	1061.342389996155	611.706216742344	327.040873563079	1082.184468432034	522.266491692774	317.631001233687	1020.963265777943	449.766784603195	311.814287469333	883.003342188003	394.824883880746	266.112583771170	884.609306605996	264.625227563797	320.419093885519	910.353043120640	403.133323770069	540.458196281924	839.156571044422	298.316880913499	599.573753014096	878.772065833983	205.327315198320	532.341951664168	744.317144284316	40.849962468592	497.221241320125	914.650929394287	96.051218374925	533.449640891776	827.021674072802	36.121296450929	572.949754717006	1035.323822302308	43.538196072186	562.928314323170	703.156662849087	191.768324278304	362.396459816247	758.448965786892	140.675900124110	284.445158723025	863.460023312340	152.820899798917	301.500997102365	942.142514902230	39.759713165837	281.139821958028	724.577769014700	1100.179486156737	189.740077480840	713.821442821599	840.514555507117	171.081536247641	959.145200403103	1120.019889759104	772.432871207976	1184.554865170745	1017.752672697884	702.567272127661	
54	13.569785714286	689.154388412733	1008.465880628960	490.035189361215	844.344557942273	1435.022813073368	291.583998816397	963.900949971838	1369.128552375155	442.019996200483	896.658917767205	1446.085178187159	621.287023395182	856.996107082423	1497.039910652720	441.300648999339	923.439532519770	945.769123184254	589.246633693224	890.701005802025	963.143538042848	316.555821852118	953.316410387086	738.555563747166	557.850541703885	867.397877590192	631.784662714512	616.938749632274	937.735108489791	578.194474544270	532.676992260239	932.589585442026	490.925250925152	534.959494286809	982.934190021354	798.320267171486	349.148718010219	952.676987747616	668.814123019649	268.738813254409	1062.279693939771	615.117689219192	327.855427314635	1084.768524751511	526.805487057701	318.447523600194	1027.050544644164	452.744198110639	312.169252473088	892.497566030080	390.111085204915	266.588933561265	902.221999163457	259.897990723114	320.005040638815	904.258625432996	402.945348761869	540.680457972508	832.694500241084	298.388624357424	599.775623049281	871.946618942876	205.231684726652	532.482152255985	737.013640153293	40.921554034852	497.325296348177	907.355494597982	95.970940113950	533.552229049171	819.728713558524	36.135584120730	573.027679823800	1028.032372136597	43.325517793961	563.039166076755	725.979823937518	174.761807906009	362.579535567750	783.939586910008	128.869009403476	283.362163603709	887.984365330488	147.862988592951	299.947834801649	973.988534949347	41.125640385058	277.027476433252	720.410914854316	1101.962668463054	192.545955280516	708.921683876211	842.148159590110	174.816663989706	965.219555706175	1119.990767230435	771.129944612091	1192.830550607019	1026.003993888969	697.567429181888	
55	13.581857142857	687.937219506775	1009.195575040949	490.943423971349	843.409877176755	1435.757571388190	293.140730841613	963.591768697406	1369.091896775627	442.699756253784	897.736486145006	1445.817766866224	622.531809827304	856.991465403224	1497.273080177232	442.982978726646	922.242157611316	945.585011247291	589.343225260505	888.866483545705	963.704930705251	316.711147065024	949.846693539072	737.911525128808	557.595862422207	863.240384131052	631.815647517698	617.221144685935	932.779820408995	577.554830657724	532.818956799861	926.884715514235	490.486189005730	535.214847051822	981.478699396956	800.260307778789	349.641333829253	952.581129716430	670.318327374440	269.140168258756	1062.186726709378	617.627182420465	328.634259485203	1086.143381432416	530.687181823054	319.190440334897	1032.214154273095	455.323166704786	312.429962060407	901.830468691374	384.671736754756	266.981373127235	920.242854102572	254.980196950522	319.548080164459	898.275497617196	402.725422974085	540.869947504374	826.317553155030	298.444463201757	599.947905930333	865.172837670017	205.111469236011	532.599597683226	729.726741210208	40.995602855612	497.407256075359	900.079954978068	95.890656487272	533.647482266173	812.443122843475	36.151046203313	573.094606279319	1020.745770402902	43.094785407140	563.147234529692	750.429036065741	157.305191079047	362.769105482130	810.797011169102	116.932698874533	282.341560679272	913.359840644704	143.010384683090	298.443570847887	1006.574289121406	43.274213709614	273.075708689097	716.462364089995	1103.637417040106	195.244371947630	704.778960911591	843.630834746234	178.419942151951	971.014130555534	1119.766348411683	769.576933186502	1200.408058679085	1033.842987479191	692.437880341761	
56	13.593928571429	686.749187506402	1009.820446415675	491.722908002741	842.572371752106	1436.380834822352	294.613573497495	963.319666532993	1368.921084523306	443.329509439941	898.798044242808	1445.388933367829	623.697493312187	857.006637426128	1497.384687249129	444.598145383532	921.062545669386	945.293430432258	589.346793412041	887.102320790819	964.090752146576	316.757252174836	946.491928441928	737.237748235909	557.327340916117	859.219821143513	631.794244921718	617.451993846162	928.003308710703	576.885002866868	532.944626249354	921.366590119996	490.010389995534	535.450122523133	979.703093246763	801.522058707537	349.854721219144	951.731684321479	671.198524163003	269.367477809057	1061.086876867235	619.195965273765	329.405826665872	1086.357006086856	533.881512761338	319.888269020342	1036.450221705833	457.523951141110	312.636179650796	911.058584678866	378.717641492804	267.232996012969	938.501757488980	250.183269888283	319.079159270311	892.447350213061	402.458034648148	541.021704243269	820.060817053888	298.477980737140	600.086790218289	858.472029264804	204.959823234339	532.689963498623	722.453485372597	41.072255315196	497.469508245758	892.827736741636	95.813652733098	533.736821897520	805.164376300058	36.166944210915	573.149649246017	1013.465294621376	42.850680592397	563.252494123035	776.294912992574	140.030145206250	362.855936962191	838.820356080282	105.376444736012	281.383012765960	939.319695595091	138.633565809431	297.082789768465	1039.452763469282	46.494322685053	269.590184112495	712.771891508530	1105.170125595514	197.813199662923	701.378985671299	844.931591722085	181.868585525625	976.530126038349	1119.341676078895	767.785951311323	1207.306872570722	1041.205942368242	687.210650794848	
57	13.606000000000	685.603339183665	1010.316196077062	492.381627399755	841.834010112997	1436.884081772414	295.984928754986	963.074474109613	1368.617085948276	443.906455875083	899.800982699086	1444.802908375759	624.774407871802	857.037511906335	1497.372870737031	446.124118071389	919.922610554877	944.908176576726	589.265087117773	885.420237365457	964.294971434584	316.697276325615	943.299253822340	736.535908048559	557.068203703170	855.369895883139	631.711641692472	617.627935108234	923.447529184249	576.184141256650	533.056175472839	916.076143470273	489.486995926764	535.655279794957	977.629794131294	802.096627986172	349.809856476059	950.151265488519	671.449407505484	269.421281018783	1059.033405987272	619.832213997146	330.176048204183	1085.492190458046	536.397166869102	320.566001633983	1039.783945679290	459.386275928801	312.830243105715	920.223305695726	372.478312700607	267.298545904436	956.799177702405	245.798697679499	318.638749553020	886.802334182370	402.131286444731	541.127672580364	813.947959459172	298.484164176182	600.186475358583	851.858669750393	204.772090469809	532.747637776536	715.190126520022	41.150590989293	497.515371099043	885.599390665183	95.742316004075	533.820296032603	797.891340153531	36.182101732279	573.191314674210	1006.191941246850	42.599470304520	563.354489373794	803.265647206147	123.525532544862	362.752159169272	867.738731059320	94.661644861577	280.499051241437	965.562889725489	135.060445919356	295.962110325587	1072.182891642862	51.014036367328	266.865158250286	709.382113758876	1106.532184195551	200.225471812506	698.711399497876	846.027297565502	185.141189105329	981.763208492226	1118.724143521964	765.766535826632	1213.548627110342	1048.043254180012	681.910666556366	
